<svg xmlns="http://www.w3.org/2000/svg" width="230" height="50" fill="none" style=""><rect id="backgroundrect" width="100%" height="100%" x="0" y="0" fill="none" stroke="none" class="" style=""/>

<g class="currentLayer" style=""><title>Layer 1</title><path fill-rule="evenodd" clip-rule="evenodd" d="M28.66089999985695,7.408950805664162 H20.71759999985695 C20.372899999856948,7.408950805664162 20.056899999856952,7.590950805664157 19.889299999856952,7.887750805664162 L15.086899999856946,16.204550805664162 L20.162199999856952,25.00005080566416 L29.48919999985695,8.845350805664161 C29.857899999856954,8.20855080566416 29.398199999856942,7.408950805664162 28.66089999985695,7.408950805664162 zM10.835199999856947,8.845350805664161 L15.082199999856947,16.204550805664162 L5.7599999998569515,32.35915080566416 C5.3912999998569475,32.99595080566416 4.471999999856948,32.99595080566416 4.103299999856951,32.35915080566416 L0.12929999985694726,25.47885080566416 C-0.043100000143049155,25.181950805664158 -0.043100000143049155,24.818050805664157 0.12929999985694726,24.52125080566416 L9.17859999985695,8.845350805664161 C9.547299999856946,8.20855080566416 10.466599999856946,8.20855080566416 10.835199999856947,8.845350805664161 zM36.22549999985695,17.64095080566416 L40.199499999856954,24.52125080566416 C40.37189999985695,24.818050805664157 40.37189999985695,25.181950805664158 40.199499999856954,25.47885080566416 L31.15019999985695,41.15465080566416 C30.781499999856948,41.791450805664155 29.862199999856955,41.791450805664155 29.493599999856954,41.15465080566416 L25.246599999856947,33.79555080566416 L34.56879999985695,17.64095080566416 C34.937499999856946,17.00415080566416 35.856799999856946,17.00415080566416 36.22549999985695,17.64095080566416 zM20.16209999985695,25.00005080566416 L25.24219999985695,33.79555080566416 L20.43979999985695,42.11225080566416 C20.267499999856952,42.409150805664154 19.95149999985695,42.59105080566415 19.611499999856946,42.59105080566415 H11.668199999856952 C10.930899999856948,42.59105080566415 10.471299999856946,41.791450805664155 10.839899999856947,41.15465080566416 L20.16209999985695,25.00005080566416 zM156.46889999985694,14.43695080566416 H157.33389999985695 C157.55989999985695,14.43695080566416 157.73989999985696,14.616450805664158 157.73989999985696,14.843150805664159 V34.85945080566415 C157.73989999985696,35.08145080566416 157.55589999985696,35.265650805664166 157.33389999985695,35.265650805664166 H153.49889999985695 C153.27689999985694,35.265650805664166 153.09189999985693,35.08145080566416 153.09189999985693,34.85945080566415 V17.813950805664156 C153.09189999985693,17.705250805664157 153.13489999985694,17.60135080566416 153.20989999985696,17.525850805664156 L156.18089999985696,14.555050805664159 C156.25689999985696,14.479450805664158 156.36089999985694,14.43695080566416 156.46889999985694,14.43695080566416 zM179.05489999985696,14.715550805664158 H175.22489999985694 C175.00289999985694,14.715550805664158 174.81789999985696,14.895050805664162 174.81789999985696,15.121750805664156 V25.611650805664162 L163.76589999985694,14.559750805664159 C163.69089999985695,14.484150805664157 163.58689999985694,14.44165080566416 163.47789999985696,14.44165080566416 H162.61889999985695 C162.39689999985694,14.44165080566416 162.21289999985694,14.625850805664157 162.21289999985694,14.847850805664159 V34.85945080566415 C162.21289999985694,35.08135080566416 162.39689999985694,35.26555080566416 162.61889999985695,35.26555080566416 H166.40689999985696 C166.62889999985694,35.26555080566416 166.81289999985694,35.08135080566416 166.81289999985694,34.85945080566415 V24.17585080566416 L178.07689999985695,35.44035080566415 C178.15289999985694,35.51595080566416 178.25689999985696,35.558450805664165 178.36489999985696,35.558450805664165 H179.06389999985694 C179.28589999985695,35.558450805664165 179.47089999985695,35.37425080566416 179.47089999985695,35.15225080566415 L179.46589999985696,15.121750805664156 C179.46089999985696,14.895050805664162 179.28189999985696,14.715550805664158 179.05489999985696,14.715550805664158 zM70.59489999985695,31.18495080566416 C70.52889999985695,31.043250805664158 70.38189999985696,30.94875080566416 70.22689999985695,30.94875080566416 H62.93389999985695 V27.14665080566416 H69.38089999985695 C69.60789999985695,27.14665080566416 69.78689999985694,26.96245080566416 69.78689999985694,26.740550805664157 V25.805350805664162 C69.78689999985694,25.748650805664163 69.77289999985695,25.687250805664156 69.74989999985695,25.63535080566416 L68.57389999985695,23.07075080566416 C68.50689999985696,22.92425080566416 68.36089999985695,22.834550805664158 68.20489999985695,22.834550805664158 H62.93389999985695 V19.032450805664162 H70.80789999985694 C71.02989999985695,19.032450805664162 71.21389999985695,18.848250805664158 71.21389999985695,18.62635080566416 V17.691150805664158 C71.21389999985695,17.63445080566416 71.19989999985695,17.57305080566416 71.17589999985695,17.521150805664156 L69.98589999985695,14.956450805664161 C69.91989999985695,14.814850805664157 69.77289999985695,14.720350805664161 69.61689999985695,14.720350805664161 H58.73529999985695 C58.508599999856955,14.720350805664161 58.32909999985695,14.904550805664158 58.32909999985695,15.12655080566416 V34.85945080566415 C58.32909999985695,35.08145080566416 58.513299999856955,35.265650805664166 58.73529999985695,35.265650805664166 H71.41689999985695 C71.64389999985696,35.265650805664166 71.82289999985694,35.08145080566416 71.82289999985694,34.85945080566415 V33.92425080566416 C71.82289999985694,33.867650805664155 71.80889999985695,33.80625080566416 71.78489999985695,33.75425080566416 L70.59489999985695,31.18495080566416 zM106.85789999985695,30.94875080566416 C107.01389999985696,30.94875080566416 107.16089999985695,31.043250805664158 107.22689999985695,31.18495080566416 L108.41689999985695,33.75425080566416 C108.44089999985695,33.80625080566416 108.45489999985696,33.867650805664155 108.45489999985696,33.92425080566416 V34.85945080566415 C108.45489999985696,35.08145080566416 108.27489999985696,35.265650805664166 108.04889999985696,35.265650805664166 H95.36689999985694 C95.14089999985694,35.265650805664166 94.96089999985696,35.08145080566416 94.96089999985696,34.85945080566415 V15.12655080566416 C94.96089999985696,14.904550805664158 95.14089999985694,14.720350805664161 95.36689999985694,14.720350805664161 H106.24889999985695 C106.40489999985695,14.720350805664161 106.55089999985694,14.814850805664157 106.61789999985695,14.956450805664161 L107.80789999985694,17.521150805664156 C107.83089999985694,17.57305080566416 107.84589999985695,17.63445080566416 107.84589999985695,17.691150805664158 V18.62635080566416 C107.84589999985695,18.848250805664158 107.66589999985695,19.032450805664162 107.43889999985694,19.032450805664162 H99.56589999985695 V22.834550805664158 H104.83689999985694 C104.99289999985695,22.834550805664158 105.13889999985696,22.92425080566416 105.20489999985696,23.07075080566416 L106.38089999985695,25.63535080566416 C106.40489999985695,25.687250805664156 106.41889999985696,25.748650805664163 106.41889999985696,25.805350805664162 V26.740550805664157 C106.41889999985696,26.96245080566416 106.23489999985694,27.14665080566416 106.01289999985696,27.14665080566416 H99.56589999985695 V30.94875080566416 H106.85789999985695 zM197.38989999985694,33.74955080566416 L196.19989999985694,31.18495080566416 C196.13289999985696,31.043250805664158 195.98689999985694,30.94875080566416 195.83089999985694,30.94875080566416 H188.53889999985694 V27.14665080566416 H194.98589999985694 C195.20789999985695,27.14665080566416 195.39189999985695,26.96245080566416 195.39189999985695,26.740550805664157 V25.805350805664162 C195.39189999985695,25.748650805664163 195.37789999985694,25.687250805664156 195.35389999985694,25.63535080566416 L194.17789999985695,23.07075080566416 C194.11189999985694,22.92425080566416 193.96489999985695,22.834550805664158 193.80989999985695,22.834550805664158 H188.53889999985694 V19.032450805664162 H196.41189999985696 C196.63389999985694,19.032450805664162 196.81789999985696,18.848250805664158 196.81789999985696,18.62635080566416 V17.691150805664158 C196.81789999985696,17.63445080566416 196.80389999985695,17.57305080566416 196.77989999985695,17.521150805664156 L195.58989999985695,14.956450805664161 C195.52389999985695,14.814850805664157 195.37789999985694,14.720350805664161 195.22189999985696,14.720350805664161 H184.33989999985695 C184.11789999985695,14.720350805664161 183.93389999985695,14.904550805664158 183.93389999985695,15.12655080566416 V34.85945080566415 C183.93389999985695,35.08145080566416 184.11789999985695,35.265650805664166 184.33989999985695,35.265650805664166 H197.02089999985694 C197.24289999985695,35.265650805664166 197.42789999985695,35.08145080566416 197.42789999985695,34.85945080566415 V33.92425080566416 C197.42789999985695,33.862850805664166 197.41789999985696,33.80625080566416 197.38989999985694,33.74955080566416 zM148.33689999985694,22.324450805664156 H147.30689999985694 C147.23189999985695,22.324450805664156 147.15589999985696,22.352750805664158 147.10389999985694,22.409450805664157 L144.06689999985696,25.44635080566416 C144.01489999985694,25.49835080566416 143.98189999985695,25.573850805664158 143.98189999985695,25.64945080566416 V30.410250805664162 C143.12689999985696,30.87785080566416 142.15389999985695,31.142350805664158 141.11989999985695,31.142350805664158 C137.69589999985695,31.142350805664158 135.13589999985695,27.850350805664156 135.13589999985695,24.98825080566416 C135.13589999985695,21.57345080566416 137.77089999985694,18.857650805664157 141.11989999985695,18.857650805664157 C142.23889999985695,18.857650805664157 143.28789999985696,19.12695080566416 144.18989999985695,19.66065080566416 C144.30289999985695,19.72675080566416 144.44989999985694,19.712550805664158 144.54389999985696,19.618150805664158 L147.30689999985694,16.85515080566416 C147.42989999985696,16.73235080566416 147.42089999985694,16.51975080566416 147.27389999985695,16.420550805664156 C145.54089999985695,15.173750805664156 143.41489999985694,14.44165080566416 141.11989999985695,14.44165080566416 C135.28689999985696,14.44165080566416 130.55889999985695,19.169450805664162 130.55889999985695,25.002350805664157 C130.55889999985695,30.254450805664156 135.15889999985694,35.563150805664165 141.11989999985695,35.563150805664165 C142.52689999985694,35.563150805664165 145.00689999985696,35.48285080566416 148.47789999985696,33.574750805664166 C148.57289999985696,33.52275080566416 148.62989999985695,33.423550805664156 148.62989999985695,33.31965080566416 V22.612550805664156 C148.62489999985695,22.45195080566416 148.49689999985694,22.324450805664156 148.33689999985694,22.324450805664156 zM127.81889999985694,21.530950805664162 C127.81889999985694,23.188750805664156 126.99289999985695,25.70145080566416 124.69289999985696,27.090050805664163 L128.51789999985695,33.725850805664166 C128.55589999985696,33.78725080566416 128.57489999985694,33.85815080566415 128.57489999985694,33.92895080566416 V34.85945080566415 C128.57489999985694,35.08145080566416 128.39089999985694,35.265650805664166 128.16889999985696,35.265650805664166 H124.41389999985694 C124.26289999985696,35.265650805664166 124.12589999985695,35.18535080566416 124.05489999985696,35.05305080566416 L120.26189999985695,28.096050805664163 H116.75289999985694 V34.85945080566415 C116.75289999985694,35.08145080566416 116.56889999985694,35.265650805664166 116.34689999985696,35.265650805664166 H112.51189999985695 C112.28989999985694,35.265650805664166 112.10589999985694,35.08145080566416 112.10589999985694,34.85945080566415 V15.117050805664157 C112.10589999985694,14.895050805664162 112.28989999985694,14.710850805664158 112.51189999985695,14.710850805664158 H120.99389999985695 C124.74889999985695,14.710850805664158 127.81889999985694,17.667550805664156 127.81889999985694,21.530950805664162 zM116.75789999985696,24.06725080566416 H121.13089999985695 C122.46789999985694,24.06725080566416 123.55889999985695,22.86285080566416 123.55889999985695,21.526250805664162 C123.55889999985695,20.189650805664158 122.46789999985694,18.98055080566416 121.13089999985695,18.98055080566416 H116.75789999985696 V24.06725080566416 zM91.84889999985694,14.720350805664161 H88.05189999985694 C87.89089999985696,14.720350805664161 87.74889999985695,14.814850805664157 87.68289999985694,14.956450805664161 L82.69589999985695,25.77705080566416 L77.70789999985695,14.956450805664161 C77.64189999985695,14.814850805664157 77.49589999985695,14.720350805664161 77.33989999985695,14.720350805664161 H73.54289999985694 C73.32089999985695,14.720350805664161 73.13589999985695,14.904550805664158 73.13589999985695,15.12655080566416 V16.04755080566416 C73.13589999985695,16.108950805664158 73.15089999985695,16.16555080566416 73.17389999985694,16.21755080566416 L82.09089999985694,35.317550805664155 C82.15689999985695,35.459250805664155 82.30389999985695,35.553750805664166 82.45989999985694,35.553750805664166 H82.92689999985694 C83.08289999985695,35.553750805664166 83.22989999985695,35.463950805664155 83.29589999985694,35.317550805664155 L92.21789999985694,16.22225080566416 C92.24089999985694,16.170350805664157 92.25489999985695,16.108950805664158 92.25489999985695,16.05225080566416 V15.131250805664159 C92.25489999985695,14.904550805664158 92.07089999985695,14.720350805664161 91.84889999985694,14.720350805664161 z" fill="white" id="svg_1" class=""/></g></svg>