<svg xmlns="http://www.w3.org/2000/svg" width="200" height="50" fill="none" style=""><rect id="backgroundrect" width="100%" height="100%" x="0" y="0" fill="none" stroke="none" class="" style=""/>

<g class="currentLayer" style=""><title>Layer 1</title><path fill-rule="evenodd" clip-rule="evenodd" d="M23.472040438201102,10.593688964843832 H16.966820476033362 C16.68452604916301,10.593688964843832 16.425735683943902,10.742739111900407 16.288478515555532,10.98580550556191 L12.35552012970653,17.796905851936422 L16.511971840455207,25.000040843343815 L24.15038239867893,11.770038586998066 C24.4523317899963,11.24852686367043 24.075857325150633,10.593688964843832 23.472040438201102,10.593688964843832 zM8.873561282231478,11.770038586998066 L12.351671032502322,17.796905851936422 L4.717191467168005,31.02682621259697 C4.415242075850635,31.548337935924607 3.6623750418445162,31.548337935924607 3.3604256505271515,31.02682621259697 L0.10589112084117433,25.392157384061893 C-0.03529704043659387,25.149009094715197 -0.03529704043659387,24.850990696287234 0.10589112084117433,24.607924302625737 L7.516877361275823,11.770038586998066 C7.818826752593187,11.24852686367043 8.571693786599306,11.24852686367043 8.873561282231478,11.770038586998066 zM29.66712144053188,18.973255474090656 L32.921655970217856,24.607924302625737 C33.06284413149562,24.850990696287234 33.06284413149562,25.149009094715197 32.921655970217856,25.392157384061893 L25.51066972978321,38.22996120400437 C25.208720338465838,38.751472927332 24.455853304459726,38.751472927332 24.153985808827553,38.22996120400437 L20.675876058556703,32.20317583475121 L28.310355623891027,18.973255474090656 C28.612305015208392,18.451743750763022 29.36517204921451,18.451743750763022 29.66712144053188,18.973255474090656 zM16.511889944770008,25.000040843343815 L20.672272648408086,32.20317583475121 L16.739314262559088,39.014194285440524 C16.598207996966515,39.25734257478722 16.339417631747395,39.406310826158595 16.060972302081254,39.406310826158595 H9.55575233991352 C8.951935452963978,39.406310826158595 8.575542883803514,38.751472927332 8.877410379435686,38.22996120400437 L16.511889944770008,25.000040843343815 zM128.1412777734062,16.34931772041329 H128.8496754503509 C129.0347596988937,16.34931772041329 129.18217193224638,16.496320475339967 129.18217193224638,16.681977993679126 V33.074464029550626 C129.18217193224638,33.256272450685586 129.03148387148588,33.40712430281647 128.8496754503509,33.40712430281647 H125.70897592308727 C125.5271675019523,33.40712430281647 125.37566048433985,33.256272450685586 125.37566048433985,33.074464029550626 V19.1149350094796 C125.37566048433985,19.025914399671635 125.4108756289741,18.940824782753072 125.47229739287106,18.878993540430145 L127.90541820004194,16.446036524629672 C127.96765892079083,16.384123386621553 128.05283043339458,16.34931772041329 128.1412777734062,16.34931772041329 zM146.63823723175733,16.57747909936913 H143.50163248875347 C143.3198240676185,16.57747909936913 143.16831705000607,16.72448185429581 143.16831705000607,16.910139372634966 V25.50091485400208 L134.11720592215266,16.44988562183388 C134.05578415825573,16.387972483825763 133.97061264565195,16.3531668176175 133.8813463487884,16.3531668176175 H133.17786241295542 C132.99605399182047,16.3531668176175 132.84536593105997,16.504018669748383 132.84536593105997,16.685827090883336 V33.074464029550626 C132.84536593105997,33.25619055500039 132.99605399182047,33.40704240713127 133.17786241295542,33.40704240713127 H136.280070968177 C136.46187938931195,33.40704240713127 136.61256745007242,33.25619055500039 136.61256745007242,33.074464029550626 V24.32505660595902 L145.83729743054118,33.55019606485374 C145.89953815129007,33.612109202861866 145.98470966389385,33.64691486907014 146.07315700390546,33.64691486907014 H146.64560784342495 C146.8274162645599,33.64691486907014 146.97892328217236,33.496063016939246 146.97892328217236,33.314254595804286 L146.97482849791257,16.910139372634966 C146.97073371365278,16.72448185429581 146.82414043715207,16.57747909936913 146.63823723175733,16.57747909936913 zM57.81417706825939,30.06520707702645 C57.76012591603008,29.949160891103823 57.639739258792076,29.87176946859368 57.512800946738395,29.87176946859368 H51.54014862539974 V26.758013621759492 H56.81996344998089 C57.005866655375634,26.758013621759492 57.15245993187633,26.607161769628608 57.15245993187633,26.42543524417885 V25.659546796226582 C57.15245993187633,25.613111942720494 57.1409945359489,25.56282799201019 57.12215852835384,25.52032413139351 L56.15906527044979,23.420027388858877 C56.10419516136852,23.300050210046848 55.98462746098247,23.226589780426103 55.85687019207683,23.226589780426103 H51.54014862539974 V20.112833933591922 H57.9886148777267 C58.17042329886166,20.112833933591922 58.32111135962215,19.96198208146103 58.32111135962215,19.78025555601128 V19.014367108059005 C58.32111135962215,18.96793225455292 58.30964596369473,18.917648303842626 58.289990999247706,18.875144443225935 L57.31543234541622,16.77476580500611 C57.261381193186914,16.658801514768676 57.1409945359489,16.581410092258533 57.013237267043266,16.581410092258533 H48.10167638676372 C47.91601886842457,16.581410092258533 47.769016113497884,16.73226194438942 47.769016113497884,16.91407036552437 V33.074464029550626 C47.769016113497884,33.256272450685586 47.919867965628775,33.40712430281647 48.10167638676372,33.40712430281647 H58.487359600569874 C58.673262805964626,33.40712430281647 58.819856082465314,33.256272450685586 58.819856082465314,33.074464029550626 V32.30857558159836 C58.819856082465314,32.26222262377746 58.80839068653789,32.21193867306718 58.78873572209087,32.16935291676529 L57.81417706825939,30.06520707702645 zM87.5120093908569,29.87176946859368 C87.63976665976254,29.87176946859368 87.76015331700054,29.949160891103823 87.81420446922985,30.06520707702645 L88.78876312306133,32.16935291676529 C88.80841808750836,32.21193867306718 88.81988348343579,32.26222262377746 88.81988348343579,32.30857558159836 V33.074464029550626 C88.81988348343579,33.256272450685586 88.67247125008312,33.40712430281647 88.48738700154034,33.40712430281647 H78.10137620499339 C77.9162919564506,33.40712430281647 77.76887972309797,33.256272450685586 77.76887972309797,33.074464029550626 V16.91407036552437 C77.76887972309797,16.73226194438942 77.9162919564506,16.581410092258533 78.10137620499339,16.581410092258533 H87.01326466801372 C87.14102193691936,16.581410092258533 87.2605896373054,16.658801514768676 87.31545974638668,16.77476580500611 L88.29001840021816,18.875144443225935 C88.30885440781321,18.917648303842626 88.32113876059262,18.96793225455292 88.32113876059262,19.014367108059005 V19.78025555601128 C88.32113876059262,19.96198208146103 88.17372652723995,20.112833933591922 87.9878233218452,20.112833933591922 H81.5401760263702 V23.226589780426103 H85.85689759304728 C85.98465486195293,23.226589780426103 86.10422256233899,23.300050210046848 86.1582737145683,23.420027388858877 L87.12136697247234,25.52032413139351 C87.14102193691936,25.56282799201019 87.1524873328468,25.613111942720494 87.1524873328468,25.659546796226582 V26.42543524417885 C87.1524873328468,26.607161769628608 87.00179927208629,26.758013621759492 86.81999085095136,26.758013621759492 H81.5401760263702 V29.87176946859368 H87.5120093908569 zM161.65381111242976,32.16550381956108 L160.67925245859828,30.06520707702645 C160.62438234951702,29.949160891103823 160.50481464913096,29.87176946859368 160.37705738022532,29.87176946859368 H154.40522401573864 V26.758013621759492 H159.68503884031978 C159.86684726145472,26.758013621759492 160.01753532221522,26.607161769628608 160.01753532221522,26.42543524417885 V25.659546796226582 C160.01753532221522,25.613111942720494 160.00606992628778,25.56282799201019 159.98641496184078,25.52032413139351 L159.02332170393672,23.420027388858877 C158.9692705517074,23.300050210046848 158.84888389446942,23.226589780426103 158.72194558241574,23.226589780426103 H154.40522401573864 V20.112833933591922 H160.85287131121365 C161.0346797323486,20.112833933591922 161.1853677931091,19.96198208146103 161.1853677931091,19.78025555601128 V19.014367108059005 C161.1853677931091,18.96793225455292 161.17390239718165,18.917648303842626 161.15424743273465,18.875144443225935 L160.17968877890317,16.77476580500611 C160.12563762667384,16.658801514768676 160.00606992628778,16.581410092258533 159.87831265738217,16.581410092258533 H150.96642419436185 C150.78461577322688,16.581410092258533 150.6339277124664,16.73226194438942 150.6339277124664,16.91407036552437 V33.074464029550626 C150.6339277124664,33.256272450685586 150.78461577322688,33.40712430281647 150.96642419436185,33.40712430281647 H161.3516160340568 C161.53342445519175,33.40712430281647 161.6849314728042,33.256272450685586 161.6849314728042,33.074464029550626 V32.30857558159836 C161.6849314728042,32.25829163088807 161.67674190428463,32.21193867306718 161.65381111242976,32.16550381956108 zM121.48152065327372,22.8088398902417 H120.63799509575571 C120.57657333185878,22.8088398902417 120.5143326111099,22.832016369152146 120.47174685480799,22.878451222658235 L117.98457489540783,25.36554128637322 C117.94198913910594,25.408127042675098 117.91496356299129,25.469958284998018 117.91496356299129,25.531871423006137 V29.430761203813635 C117.21475545456616,29.813705427789767 116.41791043760982,30.030319515132984 115.57110905268398,30.030319515132984 C112.76700079157558,30.030319515132984 110.67047125055996,27.3343135584832 110.67047125055996,24.990377152490694 C110.67047125055996,22.19380329442032 112.82842255547251,19.969680275869447 115.57110905268398,19.969680275869447 C116.48752177002636,19.969680275869447 117.34660750773159,20.19022535610207 118.0853065881988,20.627302627992712 C118.17784871247021,20.681435675907213 118.29823536970821,20.669806488609392 118.37521731379239,20.59249696178444 L120.63799509575571,18.329719179821094 C120.73872678854671,18.2291512784005 120.73135617687907,18.055041051673967 120.61096951964107,17.97380053195961 C119.19171729519573,16.952725128936844 117.4506150279304,16.3531668176175 115.57110905268398,16.3531668176175 C110.7941337352058,16.3531668176175 106.92210573914257,20.22503102231034 106.92210573914257,25.00192444410332 C106.92210573914257,29.30316772627838 110.68930725815501,33.65076396627434 115.57110905268398,33.65076396627434 C116.7233813433906,33.65076396627434 118.7543943362495,33.58500173106201 121.59699356939998,32.02235016183862 C121.67479447033611,31.97976440553673 121.72147501089778,31.898523885822375 121.72147501089778,31.813434268903812 V23.044781359291154 C121.71738022663799,22.913256888866506 121.61255374958719,22.8088398902417 121.48152065327372,22.8088398902417 zM104.67816396477427,22.158997628212056 C104.67816396477427,23.51666429739006 104.00170560505596,25.574457179308016 102.11810484554974,26.711660663938606 L105.25061480429379,32.14609454216966 C105.28173516466825,32.196378492879944 105.29729534485546,32.25444253368385 105.29729534485546,32.31242467880257 V33.074464029550626 C105.29729534485546,33.256272450685586 105.14660728409496,33.40712430281647 104.96479886296002,33.40712430281647 H101.8896158838531 C101.76595339920728,33.40712430281647 101.65375631048886,33.34136206760414 101.59561037399975,33.23301407608994 L98.48930703451839,27.535531257009588 H95.61558744099345 V33.074464029550626 C95.61558744099345,33.256272450685586 95.46489938023295,33.40712430281647 95.28309095909802,33.40712430281647 H92.14239143183437 C91.96058301069941,33.40712430281647 91.80989494993892,33.256272450685586 91.80989494993892,33.074464029550626 V16.906290275430756 C91.80989494993892,16.72448185429581 91.96058301069941,16.57363000216492 92.14239143183437,16.57363000216492 H99.08878345015255 C102.16396642925945,16.57363000216492 104.67816396477427,18.99503972635277 104.67816396477427,22.158997628212056 zM95.61968222525326,24.236117891836244 H99.20098053887097 C100.29592584994045,24.236117891836244 101.18940777542797,23.24976625933655 101.18940777542797,22.15514853100785 C101.18940777542797,21.06053080267914 100.29592584994045,20.07033007297524 99.20098053887097,20.07033007297524 H95.61968222525326 V24.236117891836244 zM75.22028599980082,16.581410092258533 H72.11070683291163 C71.97885477974621,16.581410092258533 71.86256290676799,16.658801514768676 71.80851175453869,16.77476580500611 L67.72437393381801,25.636370317316135 L63.63941715624538,16.77476580500611 C63.585366004016066,16.658801514768676 63.465798303630024,16.581410092258533 63.33804103472439,16.581410092258533 H60.228461867835186 C60.04665344670025,16.581410092258533 59.89514642908779,16.73226194438942 59.89514642908779,16.91407036552437 V17.66832962617882 C59.89514642908779,17.718613576889116 59.90743078186718,17.764966534710013 59.92626678946223,17.80755229101189 L67.22890503838268,33.44962816343315 C67.28295619061198,33.565674349355774 67.40334284785,33.64306577186593 67.53110011675562,33.64306577186593 H67.91355296662059 C68.04131023552624,33.64306577186593 68.16169689276424,33.569523446559984 68.21574804499355,33.44962816343315 L75.52248107817378,17.811401388216098 C75.54131708576884,17.768897527599414 75.55278248169627,17.718613576889116 75.55278248169627,17.672178723383027 V16.91791946272858 C75.55278248169627,16.73226194438942 75.40209442093578,16.581410092258533 75.22028599980082,16.581410092258533 z" fill="white" id="svg_1" class=""/></g></svg>